<?xml version="1.0" encoding="utf-8" standalone="no"?>
<!DOCTYPE svg PUBLIC "-//W3C//DTD SVG 1.1//EN"
  "http://www.w3.org/Graphics/SVG/1.1/DTD/svg11.dtd">
<svg xmlns:xlink="http://www.w3.org/1999/xlink" width="720pt" height="432pt" viewBox="0 0 720 432" xmlns="http://www.w3.org/2000/svg" version="1.1">
 <metadata>
  <rdf:RDF xmlns:dc="http://purl.org/dc/elements/1.1/" xmlns:cc="http://creativecommons.org/ns#" xmlns:rdf="http://www.w3.org/1999/02/22-rdf-syntax-ns#">
   <cc:Work>
    <dc:type rdf:resource="http://purl.org/dc/dcmitype/StillImage"/>
    <dc:date>2025-04-20T17:02:08.949722</dc:date>
    <dc:format>image/svg+xml</dc:format>
    <dc:creator>
     <cc:Agent>
      <dc:title>Matplotlib v3.10.0, https://matplotlib.org/</dc:title>
     </cc:Agent>
    </dc:creator>
   </cc:Work>
  </rdf:RDF>
 </metadata>
 <defs>
  <style type="text/css">*{stroke-linejoin: round; stroke-linecap: butt}</style>
 </defs>
 <g id="figure_1">
  <g id="patch_1">
   <path d="M 0 432 
L 720 432 
L 720 0 
L 0 0 
z
" style="fill: #ffffff"/>
  </g>
  <g id="axes_1">
   <g id="patch_2">
    <path d="M 65.27 390.04 
L 595.161496 390.04 
L 595.161496 25.45125 
L 65.27 25.45125 
z
" style="fill: #eaeaf2"/>
   </g>
   <g id="matplotlib.axis_1">
    <g id="xtick_1">
     <g id="line2d_1">
      <path d="M 65.27 390.04 
L 65.27 25.45125 
" clip-path="url(#pb2ac63fbfc)" style="fill: none; stroke: #ffffff; stroke-width: 0.8; stroke-linecap: round"/>
     </g>
     <g id="text_1">
      <!-- 0 -->
      <g style="fill: #262626" transform="translate(62.489531 404.197812) scale(0.1 -0.1)">
       <defs>
        <path id="ArialMT-30" d="M 266 2259 
Q 266 3072 433 3567 
Q 600 4063 929 4331 
Q 1259 4600 1759 4600 
Q 2128 4600 2406 4451 
Q 2684 4303 2865 4023 
Q 3047 3744 3150 3342 
Q 3253 2941 3253 2259 
Q 3253 1453 3087 958 
Q 2922 463 2592 192 
Q 2263 -78 1759 -78 
Q 1097 -78 719 397 
Q 266 969 266 2259 
z
M 844 2259 
Q 844 1131 1108 757 
Q 1372 384 1759 384 
Q 2147 384 2411 759 
Q 2675 1134 2675 2259 
Q 2675 3391 2411 3762 
Q 2147 4134 1753 4134 
Q 1366 4134 1134 3806 
Q 844 3388 844 2259 
z
" transform="scale(0.015625)"/>
       </defs>
       <use xlink:href="#ArialMT-30"/>
      </g>
     </g>
    </g>
    <g id="xtick_2">
     <g id="line2d_2">
      <path d="M 134.987555 390.04 
L 134.987555 25.45125 
" clip-path="url(#pb2ac63fbfc)" style="fill: none; stroke: #ffffff; stroke-width: 0.8; stroke-linecap: round"/>
     </g>
     <g id="text_2">
      <!-- 1 -->
      <g style="fill: #262626" transform="translate(132.207087 404.197812) scale(0.1 -0.1)">
       <defs>
        <path id="ArialMT-31" d="M 2384 0 
L 1822 0 
L 1822 3584 
Q 1619 3391 1289 3197 
Q 959 3003 697 2906 
L 697 3450 
Q 1169 3672 1522 3987 
Q 1875 4303 2022 4600 
L 2384 4600 
L 2384 0 
z
" transform="scale(0.015625)"/>
       </defs>
       <use xlink:href="#ArialMT-31"/>
      </g>
     </g>
    </g>
    <g id="xtick_3">
     <g id="line2d_3">
      <path d="M 204.705111 390.04 
L 204.705111 25.45125 
" clip-path="url(#pb2ac63fbfc)" style="fill: none; stroke: #ffffff; stroke-width: 0.8; stroke-linecap: round"/>
     </g>
     <g id="text_3">
      <!-- 2 -->
      <g style="fill: #262626" transform="translate(201.924642 404.197812) scale(0.1 -0.1)">
       <defs>
        <path id="ArialMT-32" d="M 3222 541 
L 3222 0 
L 194 0 
Q 188 203 259 391 
Q 375 700 629 1000 
Q 884 1300 1366 1694 
Q 2113 2306 2375 2664 
Q 2638 3022 2638 3341 
Q 2638 3675 2398 3904 
Q 2159 4134 1775 4134 
Q 1369 4134 1125 3890 
Q 881 3647 878 3216 
L 300 3275 
Q 359 3922 746 4261 
Q 1134 4600 1788 4600 
Q 2447 4600 2831 4234 
Q 3216 3869 3216 3328 
Q 3216 3053 3103 2787 
Q 2991 2522 2730 2228 
Q 2469 1934 1863 1422 
Q 1356 997 1212 845 
Q 1069 694 975 541 
L 3222 541 
z
" transform="scale(0.015625)"/>
       </defs>
       <use xlink:href="#ArialMT-32"/>
      </g>
     </g>
    </g>
    <g id="xtick_4">
     <g id="line2d_4">
      <path d="M 274.422666 390.04 
L 274.422666 25.45125 
" clip-path="url(#pb2ac63fbfc)" style="fill: none; stroke: #ffffff; stroke-width: 0.8; stroke-linecap: round"/>
     </g>
     <g id="text_4">
      <!-- 3 -->
      <g style="fill: #262626" transform="translate(271.642198 404.197812) scale(0.1 -0.1)">
       <defs>
        <path id="ArialMT-33" d="M 269 1209 
L 831 1284 
Q 928 806 1161 595 
Q 1394 384 1728 384 
Q 2125 384 2398 659 
Q 2672 934 2672 1341 
Q 2672 1728 2419 1979 
Q 2166 2231 1775 2231 
Q 1616 2231 1378 2169 
L 1441 2663 
Q 1497 2656 1531 2656 
Q 1891 2656 2178 2843 
Q 2466 3031 2466 3422 
Q 2466 3731 2256 3934 
Q 2047 4138 1716 4138 
Q 1388 4138 1169 3931 
Q 950 3725 888 3313 
L 325 3413 
Q 428 3978 793 4289 
Q 1159 4600 1703 4600 
Q 2078 4600 2393 4439 
Q 2709 4278 2876 4000 
Q 3044 3722 3044 3409 
Q 3044 3113 2884 2869 
Q 2725 2625 2413 2481 
Q 2819 2388 3044 2092 
Q 3269 1797 3269 1353 
Q 3269 753 2831 336 
Q 2394 -81 1725 -81 
Q 1122 -81 723 278 
Q 325 638 269 1209 
z
" transform="scale(0.015625)"/>
       </defs>
       <use xlink:href="#ArialMT-33"/>
      </g>
     </g>
    </g>
    <g id="xtick_5">
     <g id="line2d_5">
      <path d="M 344.140222 390.04 
L 344.140222 25.45125 
" clip-path="url(#pb2ac63fbfc)" style="fill: none; stroke: #ffffff; stroke-width: 0.8; stroke-linecap: round"/>
     </g>
     <g id="text_5">
      <!-- 4 -->
      <g style="fill: #262626" transform="translate(341.359753 404.197812) scale(0.1 -0.1)">
       <defs>
        <path id="ArialMT-34" d="M 2069 0 
L 2069 1097 
L 81 1097 
L 81 1613 
L 2172 4581 
L 2631 4581 
L 2631 1613 
L 3250 1613 
L 3250 1097 
L 2631 1097 
L 2631 0 
L 2069 0 
z
M 2069 1613 
L 2069 3678 
L 634 1613 
L 2069 1613 
z
" transform="scale(0.015625)"/>
       </defs>
       <use xlink:href="#ArialMT-34"/>
      </g>
     </g>
    </g>
    <g id="xtick_6">
     <g id="line2d_6">
      <path d="M 413.857777 390.04 
L 413.857777 25.45125 
" clip-path="url(#pb2ac63fbfc)" style="fill: none; stroke: #ffffff; stroke-width: 0.8; stroke-linecap: round"/>
     </g>
     <g id="text_6">
      <!-- 5 -->
      <g style="fill: #262626" transform="translate(411.077308 404.197812) scale(0.1 -0.1)">
       <defs>
        <path id="ArialMT-35" d="M 266 1200 
L 856 1250 
Q 922 819 1161 601 
Q 1400 384 1738 384 
Q 2144 384 2425 690 
Q 2706 997 2706 1503 
Q 2706 1984 2436 2262 
Q 2166 2541 1728 2541 
Q 1456 2541 1237 2417 
Q 1019 2294 894 2097 
L 366 2166 
L 809 4519 
L 3088 4519 
L 3088 3981 
L 1259 3981 
L 1013 2750 
Q 1425 3038 1878 3038 
Q 2478 3038 2890 2622 
Q 3303 2206 3303 1553 
Q 3303 931 2941 478 
Q 2500 -78 1738 -78 
Q 1113 -78 717 272 
Q 322 622 266 1200 
z
" transform="scale(0.015625)"/>
       </defs>
       <use xlink:href="#ArialMT-35"/>
      </g>
     </g>
    </g>
    <g id="xtick_7">
     <g id="line2d_7">
      <path d="M 483.575333 390.04 
L 483.575333 25.45125 
" clip-path="url(#pb2ac63fbfc)" style="fill: none; stroke: #ffffff; stroke-width: 0.8; stroke-linecap: round"/>
     </g>
     <g id="text_7">
      <!-- 6 -->
      <g style="fill: #262626" transform="translate(480.794864 404.197812) scale(0.1 -0.1)">
       <defs>
        <path id="ArialMT-36" d="M 3184 3459 
L 2625 3416 
Q 2550 3747 2413 3897 
Q 2184 4138 1850 4138 
Q 1581 4138 1378 3988 
Q 1113 3794 959 3422 
Q 806 3050 800 2363 
Q 1003 2672 1297 2822 
Q 1591 2972 1913 2972 
Q 2475 2972 2870 2558 
Q 3266 2144 3266 1488 
Q 3266 1056 3080 686 
Q 2894 316 2569 119 
Q 2244 -78 1831 -78 
Q 1128 -78 684 439 
Q 241 956 241 2144 
Q 241 3472 731 4075 
Q 1159 4600 1884 4600 
Q 2425 4600 2770 4297 
Q 3116 3994 3184 3459 
z
M 888 1484 
Q 888 1194 1011 928 
Q 1134 663 1356 523 
Q 1578 384 1822 384 
Q 2178 384 2434 671 
Q 2691 959 2691 1453 
Q 2691 1928 2437 2201 
Q 2184 2475 1800 2475 
Q 1419 2475 1153 2201 
Q 888 1928 888 1484 
z
" transform="scale(0.015625)"/>
       </defs>
       <use xlink:href="#ArialMT-36"/>
      </g>
     </g>
    </g>
    <g id="xtick_8">
     <g id="line2d_8">
      <path d="M 553.292888 390.04 
L 553.292888 25.45125 
" clip-path="url(#pb2ac63fbfc)" style="fill: none; stroke: #ffffff; stroke-width: 0.8; stroke-linecap: round"/>
     </g>
     <g id="text_8">
      <!-- 7 -->
      <g style="fill: #262626" transform="translate(550.512419 404.197812) scale(0.1 -0.1)">
       <defs>
        <path id="ArialMT-37" d="M 303 3981 
L 303 4522 
L 3269 4522 
L 3269 4084 
Q 2831 3619 2401 2847 
Q 1972 2075 1738 1259 
Q 1569 684 1522 0 
L 944 0 
Q 953 541 1156 1306 
Q 1359 2072 1739 2783 
Q 2119 3494 2547 3981 
L 303 3981 
z
" transform="scale(0.015625)"/>
       </defs>
       <use xlink:href="#ArialMT-37"/>
      </g>
     </g>
    </g>
    <g id="text_9">
     <!-- Önem Skoru -->
     <g style="fill: #262626" transform="translate(302.150904 417.343125) scale(0.1 -0.1)">
      <defs>
       <path id="ArialMT-d6" d="M 309 2231 
Q 309 3372 921 4017 
Q 1534 4663 2503 4663 
Q 3138 4663 3647 4359 
Q 4156 4056 4423 3514 
Q 4691 2972 4691 2284 
Q 4691 1588 4409 1038 
Q 4128 488 3612 205 
Q 3097 -78 2500 -78 
Q 1853 -78 1343 234 
Q 834 547 571 1087 
Q 309 1628 309 2231 
z
M 934 2222 
Q 934 1394 1379 917 
Q 1825 441 2497 441 
Q 3181 441 3623 922 
Q 4066 1403 4066 2288 
Q 4066 2847 3877 3264 
Q 3688 3681 3323 3911 
Q 2959 4141 2506 4141 
Q 1863 4141 1398 3698 
Q 934 3256 934 2222 
z
M 1615 4865 
L 1615 5505 
L 2202 5505 
L 2202 4865 
L 1615 4865 
z
M 2780 4865 
L 2780 5505 
L 3368 5505 
L 3368 4865 
L 2780 4865 
z
" transform="scale(0.015625)"/>
       <path id="ArialMT-6e" d="M 422 0 
L 422 3319 
L 928 3319 
L 928 2847 
Q 1294 3394 1984 3394 
Q 2284 3394 2536 3286 
Q 2788 3178 2913 3003 
Q 3038 2828 3088 2588 
Q 3119 2431 3119 2041 
L 3119 0 
L 2556 0 
L 2556 2019 
Q 2556 2363 2490 2533 
Q 2425 2703 2258 2804 
Q 2091 2906 1866 2906 
Q 1506 2906 1245 2678 
Q 984 2450 984 1813 
L 984 0 
L 422 0 
z
" transform="scale(0.015625)"/>
       <path id="ArialMT-65" d="M 2694 1069 
L 3275 997 
Q 3138 488 2766 206 
Q 2394 -75 1816 -75 
Q 1088 -75 661 373 
Q 234 822 234 1631 
Q 234 2469 665 2931 
Q 1097 3394 1784 3394 
Q 2450 3394 2872 2941 
Q 3294 2488 3294 1666 
Q 3294 1616 3291 1516 
L 816 1516 
Q 847 969 1125 678 
Q 1403 388 1819 388 
Q 2128 388 2347 550 
Q 2566 713 2694 1069 
z
M 847 1978 
L 2700 1978 
Q 2663 2397 2488 2606 
Q 2219 2931 1791 2931 
Q 1403 2931 1139 2672 
Q 875 2413 847 1978 
z
" transform="scale(0.015625)"/>
       <path id="ArialMT-6d" d="M 422 0 
L 422 3319 
L 925 3319 
L 925 2853 
Q 1081 3097 1340 3245 
Q 1600 3394 1931 3394 
Q 2300 3394 2536 3241 
Q 2772 3088 2869 2813 
Q 3263 3394 3894 3394 
Q 4388 3394 4653 3120 
Q 4919 2847 4919 2278 
L 4919 0 
L 4359 0 
L 4359 2091 
Q 4359 2428 4304 2576 
Q 4250 2725 4106 2815 
Q 3963 2906 3769 2906 
Q 3419 2906 3187 2673 
Q 2956 2441 2956 1928 
L 2956 0 
L 2394 0 
L 2394 2156 
Q 2394 2531 2256 2718 
Q 2119 2906 1806 2906 
Q 1569 2906 1367 2781 
Q 1166 2656 1075 2415 
Q 984 2175 984 1722 
L 984 0 
L 422 0 
z
" transform="scale(0.015625)"/>
       <path id="ArialMT-20" transform="scale(0.015625)"/>
       <path id="ArialMT-53" d="M 288 1472 
L 859 1522 
Q 900 1178 1048 958 
Q 1197 738 1509 602 
Q 1822 466 2213 466 
Q 2559 466 2825 569 
Q 3091 672 3220 851 
Q 3350 1031 3350 1244 
Q 3350 1459 3225 1620 
Q 3100 1781 2813 1891 
Q 2628 1963 1997 2114 
Q 1366 2266 1113 2400 
Q 784 2572 623 2826 
Q 463 3081 463 3397 
Q 463 3744 659 4045 
Q 856 4347 1234 4503 
Q 1613 4659 2075 4659 
Q 2584 4659 2973 4495 
Q 3363 4331 3572 4012 
Q 3781 3694 3797 3291 
L 3216 3247 
Q 3169 3681 2898 3903 
Q 2628 4125 2100 4125 
Q 1550 4125 1298 3923 
Q 1047 3722 1047 3438 
Q 1047 3191 1225 3031 
Q 1400 2872 2139 2705 
Q 2878 2538 3153 2413 
Q 3553 2228 3743 1945 
Q 3934 1663 3934 1294 
Q 3934 928 3725 604 
Q 3516 281 3123 101 
Q 2731 -78 2241 -78 
Q 1619 -78 1198 103 
Q 778 284 539 648 
Q 300 1013 288 1472 
z
" transform="scale(0.015625)"/>
       <path id="ArialMT-6b" d="M 425 0 
L 425 4581 
L 988 4581 
L 988 1969 
L 2319 3319 
L 3047 3319 
L 1778 2088 
L 3175 0 
L 2481 0 
L 1384 1697 
L 988 1316 
L 988 0 
L 425 0 
z
" transform="scale(0.015625)"/>
       <path id="ArialMT-6f" d="M 213 1659 
Q 213 2581 725 3025 
Q 1153 3394 1769 3394 
Q 2453 3394 2887 2945 
Q 3322 2497 3322 1706 
Q 3322 1066 3130 698 
Q 2938 331 2570 128 
Q 2203 -75 1769 -75 
Q 1072 -75 642 372 
Q 213 819 213 1659 
z
M 791 1659 
Q 791 1022 1069 705 
Q 1347 388 1769 388 
Q 2188 388 2466 706 
Q 2744 1025 2744 1678 
Q 2744 2294 2464 2611 
Q 2184 2928 1769 2928 
Q 1347 2928 1069 2612 
Q 791 2297 791 1659 
z
" transform="scale(0.015625)"/>
       <path id="ArialMT-72" d="M 416 0 
L 416 3319 
L 922 3319 
L 922 2816 
Q 1116 3169 1280 3281 
Q 1444 3394 1641 3394 
Q 1925 3394 2219 3213 
L 2025 2691 
Q 1819 2813 1613 2813 
Q 1428 2813 1281 2702 
Q 1134 2591 1072 2394 
Q 978 2094 978 1738 
L 978 0 
L 416 0 
z
" transform="scale(0.015625)"/>
       <path id="ArialMT-75" d="M 2597 0 
L 2597 488 
Q 2209 -75 1544 -75 
Q 1250 -75 995 37 
Q 741 150 617 320 
Q 494 491 444 738 
Q 409 903 409 1263 
L 409 3319 
L 972 3319 
L 972 1478 
Q 972 1038 1006 884 
Q 1059 663 1231 536 
Q 1403 409 1656 409 
Q 1909 409 2131 539 
Q 2353 669 2445 892 
Q 2538 1116 2538 1541 
L 2538 3319 
L 3100 3319 
L 3100 0 
L 2597 0 
z
" transform="scale(0.015625)"/>
      </defs>
      <use xlink:href="#ArialMT-d6"/>
      <use xlink:href="#ArialMT-6e" transform="translate(77.783203 0)"/>
      <use xlink:href="#ArialMT-65" transform="translate(133.398438 0)"/>
      <use xlink:href="#ArialMT-6d" transform="translate(189.013672 0)"/>
      <use xlink:href="#ArialMT-20" transform="translate(272.314453 0)"/>
      <use xlink:href="#ArialMT-53" transform="translate(300.097656 0)"/>
      <use xlink:href="#ArialMT-6b" transform="translate(366.796875 0)"/>
      <use xlink:href="#ArialMT-6f" transform="translate(416.796875 0)"/>
      <use xlink:href="#ArialMT-72" transform="translate(472.412109 0)"/>
      <use xlink:href="#ArialMT-75" transform="translate(505.712891 0)"/>
     </g>
    </g>
   </g>
   <g id="matplotlib.axis_2">
    <g id="ytick_1">
     <g id="line2d_9">
      <path d="M 65.27 356.895568 
L 595.161496 356.895568 
" clip-path="url(#pb2ac63fbfc)" style="fill: none; stroke: #ffffff; stroke-width: 0.8; stroke-linecap: round"/>
     </g>
     <g id="text_10">
      <!-- FAF -->
      <g style="fill: #262626" transform="translate(39.934063 360.474474) scale(0.1 -0.1)">
       <defs>
        <path id="ArialMT-46" d="M 525 0 
L 525 4581 
L 3616 4581 
L 3616 4041 
L 1131 4041 
L 1131 2622 
L 3281 2622 
L 3281 2081 
L 1131 2081 
L 1131 0 
L 525 0 
z
" transform="scale(0.015625)"/>
        <path id="ArialMT-41" d="M -9 0 
L 1750 4581 
L 2403 4581 
L 4278 0 
L 3588 0 
L 3053 1388 
L 1138 1388 
L 634 0 
L -9 0 
z
M 1313 1881 
L 2866 1881 
L 2388 3150 
Q 2169 3728 2063 4100 
Q 1975 3659 1816 3225 
L 1313 1881 
z
" transform="scale(0.015625)"/>
       </defs>
       <use xlink:href="#ArialMT-46"/>
       <use xlink:href="#ArialMT-41" transform="translate(55.583984 0)"/>
       <use xlink:href="#ArialMT-46" transform="translate(122.283203 0)"/>
      </g>
     </g>
    </g>
    <g id="ytick_2">
     <g id="line2d_10">
      <path d="M 65.27 323.751136 
L 595.161496 323.751136 
" clip-path="url(#pb2ac63fbfc)" style="fill: none; stroke: #ffffff; stroke-width: 0.8; stroke-linecap: round"/>
     </g>
     <g id="text_11">
      <!-- Age -->
      <g style="fill: #262626" transform="translate(40.477813 327.330043) scale(0.1 -0.1)">
       <defs>
        <path id="ArialMT-67" d="M 319 -275 
L 866 -356 
Q 900 -609 1056 -725 
Q 1266 -881 1628 -881 
Q 2019 -881 2231 -725 
Q 2444 -569 2519 -288 
Q 2563 -116 2559 434 
Q 2191 0 1641 0 
Q 956 0 581 494 
Q 206 988 206 1678 
Q 206 2153 378 2554 
Q 550 2956 876 3175 
Q 1203 3394 1644 3394 
Q 2231 3394 2613 2919 
L 2613 3319 
L 3131 3319 
L 3131 450 
Q 3131 -325 2973 -648 
Q 2816 -972 2473 -1159 
Q 2131 -1347 1631 -1347 
Q 1038 -1347 672 -1080 
Q 306 -813 319 -275 
z
M 784 1719 
Q 784 1066 1043 766 
Q 1303 466 1694 466 
Q 2081 466 2343 764 
Q 2606 1063 2606 1700 
Q 2606 2309 2336 2618 
Q 2066 2928 1684 2928 
Q 1309 2928 1046 2623 
Q 784 2319 784 1719 
z
" transform="scale(0.015625)"/>
       </defs>
       <use xlink:href="#ArialMT-41"/>
       <use xlink:href="#ArialMT-67" transform="translate(66.699219 0)"/>
       <use xlink:href="#ArialMT-65" transform="translate(122.314453 0)"/>
      </g>
     </g>
    </g>
    <g id="ytick_3">
     <g id="line2d_11">
      <path d="M 65.27 290.606705 
L 595.161496 290.606705 
" clip-path="url(#pb2ac63fbfc)" style="fill: none; stroke: #ffffff; stroke-width: 0.8; stroke-linecap: round"/>
     </g>
     <g id="text_12">
      <!-- NCP -->
      <g style="fill: #262626" transform="translate(37.155938 294.185611) scale(0.1 -0.1)">
       <defs>
        <path id="ArialMT-4e" d="M 488 0 
L 488 4581 
L 1109 4581 
L 3516 984 
L 3516 4581 
L 4097 4581 
L 4097 0 
L 3475 0 
L 1069 3600 
L 1069 0 
L 488 0 
z
" transform="scale(0.015625)"/>
        <path id="ArialMT-43" d="M 3763 1606 
L 4369 1453 
Q 4178 706 3683 314 
Q 3188 -78 2472 -78 
Q 1731 -78 1267 223 
Q 803 525 561 1097 
Q 319 1669 319 2325 
Q 319 3041 592 3573 
Q 866 4106 1370 4382 
Q 1875 4659 2481 4659 
Q 3169 4659 3637 4309 
Q 4106 3959 4291 3325 
L 3694 3184 
Q 3534 3684 3231 3912 
Q 2928 4141 2469 4141 
Q 1941 4141 1586 3887 
Q 1231 3634 1087 3207 
Q 944 2781 944 2328 
Q 944 1744 1114 1308 
Q 1284 872 1643 656 
Q 2003 441 2422 441 
Q 2931 441 3284 734 
Q 3638 1028 3763 1606 
z
" transform="scale(0.015625)"/>
        <path id="ArialMT-50" d="M 494 0 
L 494 4581 
L 2222 4581 
Q 2678 4581 2919 4538 
Q 3256 4481 3484 4323 
Q 3713 4166 3852 3881 
Q 3991 3597 3991 3256 
Q 3991 2672 3619 2267 
Q 3247 1863 2275 1863 
L 1100 1863 
L 1100 0 
L 494 0 
z
M 1100 2403 
L 2284 2403 
Q 2872 2403 3119 2622 
Q 3366 2841 3366 3238 
Q 3366 3525 3220 3729 
Q 3075 3934 2838 4000 
Q 2684 4041 2272 4041 
L 1100 4041 
L 1100 2403 
z
" transform="scale(0.015625)"/>
       </defs>
       <use xlink:href="#ArialMT-4e"/>
       <use xlink:href="#ArialMT-43" transform="translate(72.216797 0)"/>
       <use xlink:href="#ArialMT-50" transform="translate(144.433594 0)"/>
      </g>
     </g>
    </g>
    <g id="ytick_4">
     <g id="line2d_12">
      <path d="M 65.27 257.462273 
L 595.161496 257.462273 
" clip-path="url(#pb2ac63fbfc)" style="fill: none; stroke: #ffffff; stroke-width: 0.8; stroke-linecap: round"/>
     </g>
     <g id="text_13">
      <!-- CAEC -->
      <g style="fill: #262626" transform="translate(30.485625 261.041179) scale(0.1 -0.1)">
       <defs>
        <path id="ArialMT-45" d="M 506 0 
L 506 4581 
L 3819 4581 
L 3819 4041 
L 1113 4041 
L 1113 2638 
L 3647 2638 
L 3647 2100 
L 1113 2100 
L 1113 541 
L 3925 541 
L 3925 0 
L 506 0 
z
" transform="scale(0.015625)"/>
       </defs>
       <use xlink:href="#ArialMT-43"/>
       <use xlink:href="#ArialMT-41" transform="translate(72.216797 0)"/>
       <use xlink:href="#ArialMT-45" transform="translate(138.916016 0)"/>
       <use xlink:href="#ArialMT-43" transform="translate(205.615234 0)"/>
      </g>
     </g>
    </g>
    <g id="ytick_5">
     <g id="line2d_13">
      <path d="M 65.27 224.317841 
L 595.161496 224.317841 
" clip-path="url(#pb2ac63fbfc)" style="fill: none; stroke: #ffffff; stroke-width: 0.8; stroke-linecap: round"/>
     </g>
     <g id="text_14">
      <!-- FAVC -->
      <g style="fill: #262626" transform="translate(32.887188 227.896747) scale(0.1 -0.1)">
       <defs>
        <path id="ArialMT-56" d="M 1803 0 
L 28 4581 
L 684 4581 
L 1875 1253 
Q 2019 853 2116 503 
Q 2222 878 2363 1253 
L 3600 4581 
L 4219 4581 
L 2425 0 
L 1803 0 
z
" transform="scale(0.015625)"/>
       </defs>
       <use xlink:href="#ArialMT-46"/>
       <use xlink:href="#ArialMT-41" transform="translate(55.583984 0)"/>
       <use xlink:href="#ArialMT-56" transform="translate(114.908203 0)"/>
       <use xlink:href="#ArialMT-43" transform="translate(181.607422 0)"/>
      </g>
     </g>
    </g>
    <g id="ytick_6">
     <g id="line2d_14">
      <path d="M 65.27 191.173409 
L 595.161496 191.173409 
" clip-path="url(#pb2ac63fbfc)" style="fill: none; stroke: #ffffff; stroke-width: 0.8; stroke-linecap: round"/>
     </g>
     <g id="text_15">
      <!-- Height -->
      <g style="fill: #262626" transform="translate(29.365313 194.752315) scale(0.1 -0.1)">
       <defs>
        <path id="ArialMT-48" d="M 513 0 
L 513 4581 
L 1119 4581 
L 1119 2700 
L 3500 2700 
L 3500 4581 
L 4106 4581 
L 4106 0 
L 3500 0 
L 3500 2159 
L 1119 2159 
L 1119 0 
L 513 0 
z
" transform="scale(0.015625)"/>
        <path id="ArialMT-69" d="M 425 3934 
L 425 4581 
L 988 4581 
L 988 3934 
L 425 3934 
z
M 425 0 
L 425 3319 
L 988 3319 
L 988 0 
L 425 0 
z
" transform="scale(0.015625)"/>
        <path id="ArialMT-68" d="M 422 0 
L 422 4581 
L 984 4581 
L 984 2938 
Q 1378 3394 1978 3394 
Q 2347 3394 2619 3248 
Q 2891 3103 3008 2847 
Q 3125 2591 3125 2103 
L 3125 0 
L 2563 0 
L 2563 2103 
Q 2563 2525 2380 2717 
Q 2197 2909 1863 2909 
Q 1613 2909 1392 2779 
Q 1172 2650 1078 2428 
Q 984 2206 984 1816 
L 984 0 
L 422 0 
z
" transform="scale(0.015625)"/>
        <path id="ArialMT-74" d="M 1650 503 
L 1731 6 
Q 1494 -44 1306 -44 
Q 1000 -44 831 53 
Q 663 150 594 308 
Q 525 466 525 972 
L 525 2881 
L 113 2881 
L 113 3319 
L 525 3319 
L 525 4141 
L 1084 4478 
L 1084 3319 
L 1650 3319 
L 1650 2881 
L 1084 2881 
L 1084 941 
Q 1084 700 1114 631 
Q 1144 563 1211 522 
Q 1278 481 1403 481 
Q 1497 481 1650 503 
z
" transform="scale(0.015625)"/>
       </defs>
       <use xlink:href="#ArialMT-48"/>
       <use xlink:href="#ArialMT-65" transform="translate(72.216797 0)"/>
       <use xlink:href="#ArialMT-69" transform="translate(127.832031 0)"/>
       <use xlink:href="#ArialMT-67" transform="translate(150.048828 0)"/>
       <use xlink:href="#ArialMT-68" transform="translate(205.664062 0)"/>
       <use xlink:href="#ArialMT-74" transform="translate(261.279297 0)"/>
      </g>
     </g>
    </g>
    <g id="ytick_7">
     <g id="line2d_15">
      <path d="M 65.27 158.028977 
L 595.161496 158.028977 
" clip-path="url(#pb2ac63fbfc)" style="fill: none; stroke: #ffffff; stroke-width: 0.8; stroke-linecap: round"/>
     </g>
     <g id="text_16">
      <!-- CALC -->
      <g style="fill: #262626" transform="translate(31.595 161.607884) scale(0.1 -0.1)">
       <defs>
        <path id="ArialMT-4c" d="M 469 0 
L 469 4581 
L 1075 4581 
L 1075 541 
L 3331 541 
L 3331 0 
L 469 0 
z
" transform="scale(0.015625)"/>
       </defs>
       <use xlink:href="#ArialMT-43"/>
       <use xlink:href="#ArialMT-41" transform="translate(72.216797 0)"/>
       <use xlink:href="#ArialMT-4c" transform="translate(138.916016 0)"/>
       <use xlink:href="#ArialMT-43" transform="translate(194.53125 0)"/>
      </g>
     </g>
    </g>
    <g id="ytick_8">
     <g id="line2d_16">
      <path d="M 65.27 124.884545 
L 595.161496 124.884545 
" clip-path="url(#pb2ac63fbfc)" style="fill: none; stroke: #ffffff; stroke-width: 0.8; stroke-linecap: round"/>
     </g>
     <g id="text_17">
      <!-- FCVC -->
      <g style="fill: #262626" transform="translate(31.048125 128.463452) scale(0.1 -0.1)">
       <use xlink:href="#ArialMT-46"/>
       <use xlink:href="#ArialMT-43" transform="translate(61.083984 0)"/>
       <use xlink:href="#ArialMT-56" transform="translate(133.300781 0)"/>
       <use xlink:href="#ArialMT-43" transform="translate(200 0)"/>
      </g>
     </g>
    </g>
    <g id="ytick_9">
     <g id="line2d_17">
      <path d="M 65.27 91.740114 
L 595.161496 91.740114 
" clip-path="url(#pb2ac63fbfc)" style="fill: none; stroke: #ffffff; stroke-width: 0.8; stroke-linecap: round"/>
     </g>
     <g id="text_18">
      <!-- Weight -->
      <g style="fill: #262626" transform="translate(27.323125 95.31902) scale(0.1 -0.1)">
       <defs>
        <path id="ArialMT-57" d="M 1294 0 
L 78 4581 
L 700 4581 
L 1397 1578 
Q 1509 1106 1591 641 
Q 1766 1375 1797 1488 
L 2669 4581 
L 3400 4581 
L 4056 2263 
Q 4303 1400 4413 641 
Q 4500 1075 4641 1638 
L 5359 4581 
L 5969 4581 
L 4713 0 
L 4128 0 
L 3163 3491 
Q 3041 3928 3019 4028 
Q 2947 3713 2884 3491 
L 1913 0 
L 1294 0 
z
" transform="scale(0.015625)"/>
       </defs>
       <use xlink:href="#ArialMT-57"/>
       <use xlink:href="#ArialMT-65" transform="translate(92.634766 0)"/>
       <use xlink:href="#ArialMT-69" transform="translate(148.25 0)"/>
       <use xlink:href="#ArialMT-67" transform="translate(170.466797 0)"/>
       <use xlink:href="#ArialMT-68" transform="translate(226.082031 0)"/>
       <use xlink:href="#ArialMT-74" transform="translate(281.697266 0)"/>
      </g>
     </g>
    </g>
    <g id="ytick_10">
     <g id="line2d_18">
      <path d="M 65.27 58.595682 
L 595.161496 58.595682 
" clip-path="url(#pb2ac63fbfc)" style="fill: none; stroke: #ffffff; stroke-width: 0.8; stroke-linecap: round"/>
     </g>
     <g id="text_19">
      <!-- Gender -->
      <g style="fill: #262626" transform="translate(24.918438 62.174588) scale(0.1 -0.1)">
       <defs>
        <path id="ArialMT-47" d="M 2638 1797 
L 2638 2334 
L 4578 2338 
L 4578 638 
Q 4131 281 3656 101 
Q 3181 -78 2681 -78 
Q 2006 -78 1454 211 
Q 903 500 622 1047 
Q 341 1594 341 2269 
Q 341 2938 620 3517 
Q 900 4097 1425 4378 
Q 1950 4659 2634 4659 
Q 3131 4659 3532 4498 
Q 3934 4338 4162 4050 
Q 4391 3763 4509 3300 
L 3963 3150 
Q 3859 3500 3706 3700 
Q 3553 3900 3268 4020 
Q 2984 4141 2638 4141 
Q 2222 4141 1919 4014 
Q 1616 3888 1430 3681 
Q 1244 3475 1141 3228 
Q 966 2803 966 2306 
Q 966 1694 1177 1281 
Q 1388 869 1791 669 
Q 2194 469 2647 469 
Q 3041 469 3416 620 
Q 3791 772 3984 944 
L 3984 1797 
L 2638 1797 
z
" transform="scale(0.015625)"/>
        <path id="ArialMT-64" d="M 2575 0 
L 2575 419 
Q 2259 -75 1647 -75 
Q 1250 -75 917 144 
Q 584 363 401 755 
Q 219 1147 219 1656 
Q 219 2153 384 2558 
Q 550 2963 881 3178 
Q 1213 3394 1622 3394 
Q 1922 3394 2156 3267 
Q 2391 3141 2538 2938 
L 2538 4581 
L 3097 4581 
L 3097 0 
L 2575 0 
z
M 797 1656 
Q 797 1019 1065 703 
Q 1334 388 1700 388 
Q 2069 388 2326 689 
Q 2584 991 2584 1609 
Q 2584 2291 2321 2609 
Q 2059 2928 1675 2928 
Q 1300 2928 1048 2622 
Q 797 2316 797 1656 
z
" transform="scale(0.015625)"/>
       </defs>
       <use xlink:href="#ArialMT-47"/>
       <use xlink:href="#ArialMT-65" transform="translate(77.783203 0)"/>
       <use xlink:href="#ArialMT-6e" transform="translate(133.398438 0)"/>
       <use xlink:href="#ArialMT-64" transform="translate(189.013672 0)"/>
       <use xlink:href="#ArialMT-65" transform="translate(244.628906 0)"/>
       <use xlink:href="#ArialMT-72" transform="translate(300.244141 0)"/>
      </g>
     </g>
    </g>
    <g id="text_20">
     <!-- Özellikler -->
     <g style="fill: #262626" transform="translate(18.930938 228.304219) rotate(-90) scale(0.1 -0.1)">
      <defs>
       <path id="ArialMT-7a" d="M 125 0 
L 125 456 
L 2238 2881 
Q 1878 2863 1603 2863 
L 250 2863 
L 250 3319 
L 2963 3319 
L 2963 2947 
L 1166 841 
L 819 456 
Q 1197 484 1528 484 
L 3063 484 
L 3063 0 
L 125 0 
z
" transform="scale(0.015625)"/>
       <path id="ArialMT-6c" d="M 409 0 
L 409 4581 
L 972 4581 
L 972 0 
L 409 0 
z
" transform="scale(0.015625)"/>
      </defs>
      <use xlink:href="#ArialMT-d6"/>
      <use xlink:href="#ArialMT-7a" transform="translate(77.783203 0)"/>
      <use xlink:href="#ArialMT-65" transform="translate(127.783203 0)"/>
      <use xlink:href="#ArialMT-6c" transform="translate(183.398438 0)"/>
      <use xlink:href="#ArialMT-6c" transform="translate(205.615234 0)"/>
      <use xlink:href="#ArialMT-69" transform="translate(227.832031 0)"/>
      <use xlink:href="#ArialMT-6b" transform="translate(250.048828 0)"/>
      <use xlink:href="#ArialMT-6c" transform="translate(300.048828 0)"/>
      <use xlink:href="#ArialMT-65" transform="translate(322.265625 0)"/>
      <use xlink:href="#ArialMT-72" transform="translate(377.880859 0)"/>
     </g>
    </g>
   </g>
   <g id="patch_3">
    <path d="M 65.27 360.210011 
L 105.384866 360.210011 
L 105.384866 353.581125 
L 65.27 353.581125 
z
" clip-path="url(#pb2ac63fbfc)" style="fill: #1f77b4; stroke: #ffffff; stroke-linejoin: miter"/>
   </g>
   <g id="patch_4">
    <path d="M 65.27 327.06558 
L 122.203946 327.06558 
L 122.203946 320.436693 
L 65.27 320.436693 
z
" clip-path="url(#pb2ac63fbfc)" style="fill: #1f77b4; stroke: #ffffff; stroke-linejoin: miter"/>
   </g>
   <g id="patch_5">
    <path d="M 65.27 293.921148 
L 164.667695 293.921148 
L 164.667695 287.292261 
L 65.27 287.292261 
z
" clip-path="url(#pb2ac63fbfc)" style="fill: #1f77b4; stroke: #ffffff; stroke-linejoin: miter"/>
   </g>
   <g id="patch_6">
    <path d="M 65.27 260.776716 
L 180.73597 260.776716 
L 180.73597 254.14783 
L 65.27 254.14783 
z
" clip-path="url(#pb2ac63fbfc)" style="fill: #1f77b4; stroke: #ffffff; stroke-linejoin: miter"/>
   </g>
   <g id="patch_7">
    <path d="M 65.27 227.632284 
L 188.440689 227.632284 
L 188.440689 221.003398 
L 65.27 221.003398 
z
" clip-path="url(#pb2ac63fbfc)" style="fill: #1f77b4; stroke: #ffffff; stroke-linejoin: miter"/>
   </g>
   <g id="patch_8">
    <path d="M 65.27 194.487852 
L 195.181675 194.487852 
L 195.181675 187.858966 
L 65.27 187.858966 
z
" clip-path="url(#pb2ac63fbfc)" style="fill: #1f77b4; stroke: #ffffff; stroke-linejoin: miter"/>
   </g>
   <g id="patch_9">
    <path d="M 65.27 161.34342 
L 241.621272 161.34342 
L 241.621272 154.714534 
L 65.27 154.714534 
z
" clip-path="url(#pb2ac63fbfc)" style="fill: #1f77b4; stroke: #ffffff; stroke-linejoin: miter"/>
   </g>
   <g id="patch_10">
    <path d="M 65.27 128.198989 
L 314.784526 128.198989 
L 314.784526 121.570102 
L 65.27 121.570102 
z
" clip-path="url(#pb2ac63fbfc)" style="fill: #1f77b4; stroke: #ffffff; stroke-linejoin: miter"/>
   </g>
   <g id="patch_11">
    <path d="M 65.27 95.054557 
L 415.464955 95.054557 
L 415.464955 88.42567 
L 65.27 88.42567 
z
" clip-path="url(#pb2ac63fbfc)" style="fill: #1f77b4; stroke: #ffffff; stroke-linejoin: miter"/>
   </g>
   <g id="patch_12">
    <path d="M 65.27 61.910125 
L 546.989541 61.910125 
L 546.989541 55.281239 
L 65.27 55.281239 
z
" clip-path="url(#pb2ac63fbfc)" style="fill: #1f77b4; stroke: #ffffff; stroke-linejoin: miter"/>
   </g>
   <g id="patch_13">
    <path d="M 65.27 390.04 
L 65.27 25.45125 
" style="fill: none; stroke: #ffffff; stroke-width: 0.8; stroke-linejoin: miter; stroke-linecap: square"/>
   </g>
   <g id="patch_14">
    <path d="M 595.161496 390.04 
L 595.161496 25.45125 
" style="fill: none; stroke: #ffffff; stroke-width: 0.8; stroke-linejoin: miter; stroke-linecap: square"/>
   </g>
   <g id="patch_15">
    <path d="M 65.27 390.04 
L 595.161496 390.04 
" style="fill: none; stroke: #ffffff; stroke-width: 0.8; stroke-linejoin: miter; stroke-linecap: square"/>
   </g>
   <g id="patch_16">
    <path d="M 65.27 25.45125 
L 595.161496 25.45125 
" style="fill: none; stroke: #ffffff; stroke-width: 0.8; stroke-linejoin: miter; stroke-linecap: square"/>
   </g>
   <g id="text_21">
    <!-- 0.5753911733627319 -->
    <g style="fill: #262626" transform="translate(175.102421 359.480724) scale(0.1 -0.1)">
     <defs>
      <path id="ArialMT-2e" d="M 581 0 
L 581 641 
L 1222 641 
L 1222 0 
L 581 0 
z
" transform="scale(0.015625)"/>
      <path id="ArialMT-39" d="M 350 1059 
L 891 1109 
Q 959 728 1153 556 
Q 1347 384 1650 384 
Q 1909 384 2104 503 
Q 2300 622 2425 820 
Q 2550 1019 2634 1356 
Q 2719 1694 2719 2044 
Q 2719 2081 2716 2156 
Q 2547 1888 2255 1720 
Q 1963 1553 1622 1553 
Q 1053 1553 659 1965 
Q 266 2378 266 3053 
Q 266 3750 677 4175 
Q 1088 4600 1706 4600 
Q 2153 4600 2523 4359 
Q 2894 4119 3086 3673 
Q 3278 3228 3278 2384 
Q 3278 1506 3087 986 
Q 2897 466 2520 194 
Q 2144 -78 1638 -78 
Q 1100 -78 759 220 
Q 419 519 350 1059 
z
M 2653 3081 
Q 2653 3566 2395 3850 
Q 2138 4134 1775 4134 
Q 1400 4134 1122 3828 
Q 844 3522 844 3034 
Q 844 2597 1108 2323 
Q 1372 2050 1759 2050 
Q 2150 2050 2401 2323 
Q 2653 2597 2653 3081 
z
" transform="scale(0.015625)"/>
     </defs>
     <use xlink:href="#ArialMT-30"/>
     <use xlink:href="#ArialMT-2e" transform="translate(55.615234 0)"/>
     <use xlink:href="#ArialMT-35" transform="translate(83.398438 0)"/>
     <use xlink:href="#ArialMT-37" transform="translate(139.013672 0)"/>
     <use xlink:href="#ArialMT-35" transform="translate(194.628906 0)"/>
     <use xlink:href="#ArialMT-33" transform="translate(250.244141 0)"/>
     <use xlink:href="#ArialMT-39" transform="translate(305.859375 0)"/>
     <use xlink:href="#ArialMT-31" transform="translate(361.474609 0)"/>
     <use xlink:href="#ArialMT-31" transform="translate(409.714844 0)"/>
     <use xlink:href="#ArialMT-37" transform="translate(465.330078 0)"/>
     <use xlink:href="#ArialMT-33" transform="translate(520.945312 0)"/>
     <use xlink:href="#ArialMT-33" transform="translate(576.560547 0)"/>
     <use xlink:href="#ArialMT-36" transform="translate(632.175781 0)"/>
     <use xlink:href="#ArialMT-32" transform="translate(687.791016 0)"/>
     <use xlink:href="#ArialMT-37" transform="translate(743.40625 0)"/>
     <use xlink:href="#ArialMT-33" transform="translate(799.021484 0)"/>
     <use xlink:href="#ArialMT-31" transform="translate(854.636719 0)"/>
     <use xlink:href="#ArialMT-39" transform="translate(910.251953 0)"/>
    </g>
   </g>
   <g id="text_22">
    <!-- 0.8166371583938599 -->
    <g style="fill: #262626" transform="translate(191.921502 326.336293) scale(0.1 -0.1)">
     <defs>
      <path id="ArialMT-38" d="M 1131 2484 
Q 781 2613 612 2850 
Q 444 3088 444 3419 
Q 444 3919 803 4259 
Q 1163 4600 1759 4600 
Q 2359 4600 2725 4251 
Q 3091 3903 3091 3403 
Q 3091 3084 2923 2848 
Q 2756 2613 2416 2484 
Q 2838 2347 3058 2040 
Q 3278 1734 3278 1309 
Q 3278 722 2862 322 
Q 2447 -78 1769 -78 
Q 1091 -78 675 323 
Q 259 725 259 1325 
Q 259 1772 486 2073 
Q 713 2375 1131 2484 
z
M 1019 3438 
Q 1019 3113 1228 2906 
Q 1438 2700 1772 2700 
Q 2097 2700 2305 2904 
Q 2513 3109 2513 3406 
Q 2513 3716 2298 3927 
Q 2084 4138 1766 4138 
Q 1444 4138 1231 3931 
Q 1019 3725 1019 3438 
z
M 838 1322 
Q 838 1081 952 856 
Q 1066 631 1291 507 
Q 1516 384 1775 384 
Q 2178 384 2440 643 
Q 2703 903 2703 1303 
Q 2703 1709 2433 1975 
Q 2163 2241 1756 2241 
Q 1359 2241 1098 1978 
Q 838 1716 838 1322 
z
" transform="scale(0.015625)"/>
     </defs>
     <use xlink:href="#ArialMT-30"/>
     <use xlink:href="#ArialMT-2e" transform="translate(55.615234 0)"/>
     <use xlink:href="#ArialMT-38" transform="translate(83.398438 0)"/>
     <use xlink:href="#ArialMT-31" transform="translate(139.013672 0)"/>
     <use xlink:href="#ArialMT-36" transform="translate(194.628906 0)"/>
     <use xlink:href="#ArialMT-36" transform="translate(250.244141 0)"/>
     <use xlink:href="#ArialMT-33" transform="translate(305.859375 0)"/>
     <use xlink:href="#ArialMT-37" transform="translate(361.474609 0)"/>
     <use xlink:href="#ArialMT-31" transform="translate(417.089844 0)"/>
     <use xlink:href="#ArialMT-35" transform="translate(472.705078 0)"/>
     <use xlink:href="#ArialMT-38" transform="translate(528.320312 0)"/>
     <use xlink:href="#ArialMT-33" transform="translate(583.935547 0)"/>
     <use xlink:href="#ArialMT-39" transform="translate(639.550781 0)"/>
     <use xlink:href="#ArialMT-33" transform="translate(695.166016 0)"/>
     <use xlink:href="#ArialMT-38" transform="translate(750.78125 0)"/>
     <use xlink:href="#ArialMT-35" transform="translate(806.396484 0)"/>
     <use xlink:href="#ArialMT-39" transform="translate(862.011719 0)"/>
     <use xlink:href="#ArialMT-39" transform="translate(917.626953 0)"/>
    </g>
   </g>
   <g id="text_23">
    <!-- 1.4257197380065918 -->
    <g style="fill: #262626" transform="translate(234.38525 293.191861) scale(0.1 -0.1)">
     <use xlink:href="#ArialMT-31"/>
     <use xlink:href="#ArialMT-2e" transform="translate(55.615234 0)"/>
     <use xlink:href="#ArialMT-34" transform="translate(83.398438 0)"/>
     <use xlink:href="#ArialMT-32" transform="translate(139.013672 0)"/>
     <use xlink:href="#ArialMT-35" transform="translate(194.628906 0)"/>
     <use xlink:href="#ArialMT-37" transform="translate(250.244141 0)"/>
     <use xlink:href="#ArialMT-31" transform="translate(305.859375 0)"/>
     <use xlink:href="#ArialMT-39" transform="translate(361.474609 0)"/>
     <use xlink:href="#ArialMT-37" transform="translate(417.089844 0)"/>
     <use xlink:href="#ArialMT-33" transform="translate(472.705078 0)"/>
     <use xlink:href="#ArialMT-38" transform="translate(528.320312 0)"/>
     <use xlink:href="#ArialMT-30" transform="translate(583.935547 0)"/>
     <use xlink:href="#ArialMT-30" transform="translate(639.550781 0)"/>
     <use xlink:href="#ArialMT-36" transform="translate(695.166016 0)"/>
     <use xlink:href="#ArialMT-35" transform="translate(750.78125 0)"/>
     <use xlink:href="#ArialMT-39" transform="translate(806.396484 0)"/>
     <use xlink:href="#ArialMT-31" transform="translate(862.011719 0)"/>
     <use xlink:href="#ArialMT-38" transform="translate(917.626953 0)"/>
    </g>
   </g>
   <g id="text_24">
    <!-- 1.6561964750289917 -->
    <g style="fill: #262626" transform="translate(250.453525 260.047429) scale(0.1 -0.1)">
     <use xlink:href="#ArialMT-31"/>
     <use xlink:href="#ArialMT-2e" transform="translate(55.615234 0)"/>
     <use xlink:href="#ArialMT-36" transform="translate(83.398438 0)"/>
     <use xlink:href="#ArialMT-35" transform="translate(139.013672 0)"/>
     <use xlink:href="#ArialMT-36" transform="translate(194.628906 0)"/>
     <use xlink:href="#ArialMT-31" transform="translate(250.244141 0)"/>
     <use xlink:href="#ArialMT-39" transform="translate(305.859375 0)"/>
     <use xlink:href="#ArialMT-36" transform="translate(361.474609 0)"/>
     <use xlink:href="#ArialMT-34" transform="translate(417.089844 0)"/>
     <use xlink:href="#ArialMT-37" transform="translate(472.705078 0)"/>
     <use xlink:href="#ArialMT-35" transform="translate(528.320312 0)"/>
     <use xlink:href="#ArialMT-30" transform="translate(583.935547 0)"/>
     <use xlink:href="#ArialMT-32" transform="translate(639.550781 0)"/>
     <use xlink:href="#ArialMT-38" transform="translate(695.166016 0)"/>
     <use xlink:href="#ArialMT-39" transform="translate(750.78125 0)"/>
     <use xlink:href="#ArialMT-39" transform="translate(806.396484 0)"/>
     <use xlink:href="#ArialMT-31" transform="translate(862.011719 0)"/>
     <use xlink:href="#ArialMT-37" transform="translate(917.626953 0)"/>
    </g>
   </g>
   <g id="text_25">
    <!-- 1.766709804534912 -->
    <g style="fill: #262626" transform="translate(258.158244 226.902997) scale(0.1 -0.1)">
     <use xlink:href="#ArialMT-31"/>
     <use xlink:href="#ArialMT-2e" transform="translate(55.615234 0)"/>
     <use xlink:href="#ArialMT-37" transform="translate(83.398438 0)"/>
     <use xlink:href="#ArialMT-36" transform="translate(139.013672 0)"/>
     <use xlink:href="#ArialMT-36" transform="translate(194.628906 0)"/>
     <use xlink:href="#ArialMT-37" transform="translate(250.244141 0)"/>
     <use xlink:href="#ArialMT-30" transform="translate(305.859375 0)"/>
     <use xlink:href="#ArialMT-39" transform="translate(361.474609 0)"/>
     <use xlink:href="#ArialMT-38" transform="translate(417.089844 0)"/>
     <use xlink:href="#ArialMT-30" transform="translate(472.705078 0)"/>
     <use xlink:href="#ArialMT-34" transform="translate(528.320312 0)"/>
     <use xlink:href="#ArialMT-35" transform="translate(583.935547 0)"/>
     <use xlink:href="#ArialMT-33" transform="translate(639.550781 0)"/>
     <use xlink:href="#ArialMT-34" transform="translate(695.166016 0)"/>
     <use xlink:href="#ArialMT-39" transform="translate(750.78125 0)"/>
     <use xlink:href="#ArialMT-31" transform="translate(806.396484 0)"/>
     <use xlink:href="#ArialMT-32" transform="translate(862.011719 0)"/>
    </g>
   </g>
   <g id="text_26">
    <!-- 1.8633997440338135 -->
    <g style="fill: #262626" transform="translate(264.89923 193.758565) scale(0.1 -0.1)">
     <use xlink:href="#ArialMT-31"/>
     <use xlink:href="#ArialMT-2e" transform="translate(55.615234 0)"/>
     <use xlink:href="#ArialMT-38" transform="translate(83.398438 0)"/>
     <use xlink:href="#ArialMT-36" transform="translate(139.013672 0)"/>
     <use xlink:href="#ArialMT-33" transform="translate(194.628906 0)"/>
     <use xlink:href="#ArialMT-33" transform="translate(250.244141 0)"/>
     <use xlink:href="#ArialMT-39" transform="translate(305.859375 0)"/>
     <use xlink:href="#ArialMT-39" transform="translate(361.474609 0)"/>
     <use xlink:href="#ArialMT-37" transform="translate(417.089844 0)"/>
     <use xlink:href="#ArialMT-34" transform="translate(472.705078 0)"/>
     <use xlink:href="#ArialMT-34" transform="translate(528.320312 0)"/>
     <use xlink:href="#ArialMT-30" transform="translate(583.935547 0)"/>
     <use xlink:href="#ArialMT-33" transform="translate(639.550781 0)"/>
     <use xlink:href="#ArialMT-33" transform="translate(695.166016 0)"/>
     <use xlink:href="#ArialMT-38" transform="translate(750.78125 0)"/>
     <use xlink:href="#ArialMT-31" transform="translate(806.396484 0)"/>
     <use xlink:href="#ArialMT-33" transform="translate(862.011719 0)"/>
     <use xlink:href="#ArialMT-35" transform="translate(917.626953 0)"/>
    </g>
   </g>
   <g id="text_27">
    <!-- 2.529510259628296 -->
    <g style="fill: #262626" transform="translate(311.338827 160.614134) scale(0.1 -0.1)">
     <use xlink:href="#ArialMT-32"/>
     <use xlink:href="#ArialMT-2e" transform="translate(55.615234 0)"/>
     <use xlink:href="#ArialMT-35" transform="translate(83.398438 0)"/>
     <use xlink:href="#ArialMT-32" transform="translate(139.013672 0)"/>
     <use xlink:href="#ArialMT-39" transform="translate(194.628906 0)"/>
     <use xlink:href="#ArialMT-35" transform="translate(250.244141 0)"/>
     <use xlink:href="#ArialMT-31" transform="translate(305.859375 0)"/>
     <use xlink:href="#ArialMT-30" transform="translate(361.474609 0)"/>
     <use xlink:href="#ArialMT-32" transform="translate(417.089844 0)"/>
     <use xlink:href="#ArialMT-35" transform="translate(472.705078 0)"/>
     <use xlink:href="#ArialMT-39" transform="translate(528.320312 0)"/>
     <use xlink:href="#ArialMT-36" transform="translate(583.935547 0)"/>
     <use xlink:href="#ArialMT-32" transform="translate(639.550781 0)"/>
     <use xlink:href="#ArialMT-38" transform="translate(695.166016 0)"/>
     <use xlink:href="#ArialMT-32" transform="translate(750.78125 0)"/>
     <use xlink:href="#ArialMT-39" transform="translate(806.396484 0)"/>
     <use xlink:href="#ArialMT-36" transform="translate(862.011719 0)"/>
    </g>
   </g>
   <g id="text_28">
    <!-- 3.5789339542388916 -->
    <g style="fill: #262626" transform="translate(384.502082 127.469702) scale(0.1 -0.1)">
     <use xlink:href="#ArialMT-33"/>
     <use xlink:href="#ArialMT-2e" transform="translate(55.615234 0)"/>
     <use xlink:href="#ArialMT-35" transform="translate(83.398438 0)"/>
     <use xlink:href="#ArialMT-37" transform="translate(139.013672 0)"/>
     <use xlink:href="#ArialMT-38" transform="translate(194.628906 0)"/>
     <use xlink:href="#ArialMT-39" transform="translate(250.244141 0)"/>
     <use xlink:href="#ArialMT-33" transform="translate(305.859375 0)"/>
     <use xlink:href="#ArialMT-33" transform="translate(361.474609 0)"/>
     <use xlink:href="#ArialMT-39" transform="translate(417.089844 0)"/>
     <use xlink:href="#ArialMT-35" transform="translate(472.705078 0)"/>
     <use xlink:href="#ArialMT-34" transform="translate(528.320312 0)"/>
     <use xlink:href="#ArialMT-32" transform="translate(583.935547 0)"/>
     <use xlink:href="#ArialMT-33" transform="translate(639.550781 0)"/>
     <use xlink:href="#ArialMT-38" transform="translate(695.166016 0)"/>
     <use xlink:href="#ArialMT-38" transform="translate(750.78125 0)"/>
     <use xlink:href="#ArialMT-39" transform="translate(806.396484 0)"/>
     <use xlink:href="#ArialMT-31" transform="translate(862.011719 0)"/>
     <use xlink:href="#ArialMT-36" transform="translate(917.626953 0)"/>
    </g>
   </g>
   <g id="text_29">
    <!-- 5.02305269241333 -->
    <g style="fill: #262626" transform="translate(485.18251 94.32527) scale(0.1 -0.1)">
     <use xlink:href="#ArialMT-35"/>
     <use xlink:href="#ArialMT-2e" transform="translate(55.615234 0)"/>
     <use xlink:href="#ArialMT-30" transform="translate(83.398438 0)"/>
     <use xlink:href="#ArialMT-32" transform="translate(139.013672 0)"/>
     <use xlink:href="#ArialMT-33" transform="translate(194.628906 0)"/>
     <use xlink:href="#ArialMT-30" transform="translate(250.244141 0)"/>
     <use xlink:href="#ArialMT-35" transform="translate(305.859375 0)"/>
     <use xlink:href="#ArialMT-32" transform="translate(361.474609 0)"/>
     <use xlink:href="#ArialMT-36" transform="translate(417.089844 0)"/>
     <use xlink:href="#ArialMT-39" transform="translate(472.705078 0)"/>
     <use xlink:href="#ArialMT-32" transform="translate(528.320312 0)"/>
     <use xlink:href="#ArialMT-34" transform="translate(583.935547 0)"/>
     <use xlink:href="#ArialMT-31" transform="translate(639.550781 0)"/>
     <use xlink:href="#ArialMT-33" transform="translate(695.166016 0)"/>
     <use xlink:href="#ArialMT-33" transform="translate(750.78125 0)"/>
     <use xlink:href="#ArialMT-33" transform="translate(806.396484 0)"/>
    </g>
   </g>
   <g id="text_30">
    <!-- 6.909587383270264 -->
    <g style="fill: #262626" transform="translate(616.707097 61.180838) scale(0.1 -0.1)">
     <use xlink:href="#ArialMT-36"/>
     <use xlink:href="#ArialMT-2e" transform="translate(55.615234 0)"/>
     <use xlink:href="#ArialMT-39" transform="translate(83.398438 0)"/>
     <use xlink:href="#ArialMT-30" transform="translate(139.013672 0)"/>
     <use xlink:href="#ArialMT-39" transform="translate(194.628906 0)"/>
     <use xlink:href="#ArialMT-35" transform="translate(250.244141 0)"/>
     <use xlink:href="#ArialMT-38" transform="translate(305.859375 0)"/>
     <use xlink:href="#ArialMT-37" transform="translate(361.474609 0)"/>
     <use xlink:href="#ArialMT-33" transform="translate(417.089844 0)"/>
     <use xlink:href="#ArialMT-38" transform="translate(472.705078 0)"/>
     <use xlink:href="#ArialMT-33" transform="translate(528.320312 0)"/>
     <use xlink:href="#ArialMT-32" transform="translate(583.935547 0)"/>
     <use xlink:href="#ArialMT-37" transform="translate(639.550781 0)"/>
     <use xlink:href="#ArialMT-30" transform="translate(695.166016 0)"/>
     <use xlink:href="#ArialMT-32" transform="translate(750.78125 0)"/>
     <use xlink:href="#ArialMT-36" transform="translate(806.396484 0)"/>
     <use xlink:href="#ArialMT-34" transform="translate(862.011719 0)"/>
    </g>
   </g>
   <g id="text_31">
    <!-- Özellik Önemi -->
    <g style="fill: #262626" transform="translate(292.875123 19.45125) scale(0.12 -0.12)">
     <use xlink:href="#ArialMT-d6"/>
     <use xlink:href="#ArialMT-7a" transform="translate(77.783203 0)"/>
     <use xlink:href="#ArialMT-65" transform="translate(127.783203 0)"/>
     <use xlink:href="#ArialMT-6c" transform="translate(183.398438 0)"/>
     <use xlink:href="#ArialMT-6c" transform="translate(205.615234 0)"/>
     <use xlink:href="#ArialMT-69" transform="translate(227.832031 0)"/>
     <use xlink:href="#ArialMT-6b" transform="translate(250.048828 0)"/>
     <use xlink:href="#ArialMT-20" transform="translate(300.048828 0)"/>
     <use xlink:href="#ArialMT-d6" transform="translate(327.832031 0)"/>
     <use xlink:href="#ArialMT-6e" transform="translate(405.615234 0)"/>
     <use xlink:href="#ArialMT-65" transform="translate(461.230469 0)"/>
     <use xlink:href="#ArialMT-6d" transform="translate(516.845703 0)"/>
     <use xlink:href="#ArialMT-69" transform="translate(600.146484 0)"/>
    </g>
   </g>
  </g>
 </g>
 <defs>
  <clipPath id="pb2ac63fbfc">
   <rect x="65.27" y="25.45125" width="529.891496" height="364.58875"/>
  </clipPath>
 </defs>
</svg>
